# xmcd CD Database Entry
#
# Track frame offsets:
# 150
# 25849
# 48674
# 73534
# 99776
# 116027
# 138977
# 160435
# 191581
# 216400
# 245281
# 274139
#
# Disc length: 4021 seconds
#
# Revision: 1
# Processed by: cddbd v1.4PL0 Copyright (c) Steve Scherf et al.
# Submitted via: tcd 2.0b
#
DISCID=ae0fb30c
DTITLE=Dr. John 
DYEAR=1900
DGENRE=
TTITLE0=On the wrong side of the railroad tracks
TTITLE1=i 'm gonna go fishin'
TTITLE2=It don't mean a thing
TTITLE3=Perdido
TTITLE4=Don't get around  much anymore
TTITLE5=Solitude
TTITLE6=Satin doll
TTITLE7=Mood indigo
TTITLE8=Do nothin' til you hear from me
TTITLE9=Thing's ain't  what they used  to be
TTITLE10=Caravan
TTITLE11=Flaming sword
EXTD=
EXTT0=
EXTT1=
EXTT2=
EXTT3=
EXTT4=
EXTT5=
EXTT6=
EXTT7=
EXTT8=
EXTT9=
EXTT10=
EXTT11=
PLAYORDER=
